<svg id="Layer_1" data-name="Layer 1" xmlns="http://www.w3.org/2000/svg" width="4.2in" height="4.2in" viewBox="0 0 301.7 302"><title>coco</title><path d="M86.5,110.7c-.9-2.5,1-6.5,3.2-7.1a1.5,1.5,0,0,1,1.3.1c1.2,1-1.3,5.8-1.3,5.8-7.1,14.9-19.1,13.7-19.1,13.7s2-15.7,16.4-37,27.7-9.8,27.7-9.8c4.6,33.8-18.1,40.4-18.1,40.4,7.3-19.1-7.8-20.3-7.8-20.3-14.7,4.6-5.1,20.8-5.1,20.8,14.4,20.8,33.5-2,33.5-2s24.2-41.1-9.1-50.9-49.7,54.3-49.7,54.3a30.4,30.4,0,0,0-18.6-11c-2.1-.3-12.8-2.1-21.3,4.9s-12.4,23.4-5.1,34c4.8,7,14.5,12.2,23.5,9.8s15.5-10.1,13.7-15.9c-.3-.9-1.4-3.7-6.9-5.6,0,0-5,17.9-17.9,14.2s-2.4-29.2,8.8-30.6,23.3,7.8,23.3,7.8S47,162.9,59.2,185.6s40.1,17.3,49.4-2,10.3-20,10.3-20-8,32.2,11.2,36.7,31.4-24.1,33.4-34.5a24.3,24.3,0,0,0,8.3-3.6s-7.2,35.1,17,35.6c0,0,16,1.5,26.3-32,0,0,3.1,21.9,12.9,21.9s27.9-17.8,28.1-42.6c0,0,21.7-3.6,27.6-36.1s-16.5-39-24.5-39.5S225.2,81.1,242,101.8s25.8-6.2,25.8-6.2-2.1-5.4-10.3-3.6c0,0-4.9,11.6-7.5,9.8S241.5,82.4,260.6,77s15.2,23.5,11.9,33.6-7.7,18.8-15.2,25.6c0,0-.3-22.5-19.9-19.9,0,0-14.7,14.7,11.1,28.4,0,0-1.8,22.7-16.5,37.2,0,0-11.4-6.5-6.5-50.9,0,0-1.5-7.5-10.6-2.8,0,0-11.1,52.7-25.8,64.3,0,0-16.8-10.6-4.9-46,0,0,4.9-11.4,8.3-11.6s3.1,9.3,8.8,6.5,2.3-13.2-9.3-14.7-22.5,23-22.5,23a26.3,26.3,0,0,1-3.9,5.7s4.6-23-12.6-24.3-16,17.6-15.2,19.9,5.2,12.1,15.7,14.5c0,0-9.8,31-19.6,29.7s-10.8-16-4.1-57.3c0,0,.8-4.1-9.8-4.9,0,0-23.2,61.7-39.8,59.4S63.6,148.5,68.8,132c0,0,14.2,5.4,24.8-9.6,1.6-1.5,3.5-3.7,3-5.6S88,114.6,86.5,110.7Z" fill="#af752a"/><path d="M154.9,158.1c1.1-.4,1.3-3.6,1.7-9.9.2-4.7.2-7.1-1.4-9.3s-1.3-1.8-2.4-2-4.2,2.8-5.1,5.1c-2.2,5.9,2,11.6,2.7,12.6S153.4,158.6,154.9,158.1Z" fill="#321c16"/><path d="M248.4,137c.7-.3.3-2.4-.3-6.5s-1.1-5.5-1.8-6.6-1.9-3.2-3.2-3-1.8,3.3-1.8,5.3c.1,3.9,2.4,6.7,3.8,8.3S247.6,137.4,248.4,137Z" fill="#321c16"/><path d="M88.8,216.2c.5,1.6.1,2.2.6,2.8s3,.7,4.1-.3.9-5.9-1.4-7.8-7.6-1-10.2.6c-5.4,3.4-5.8,10.5-6,13s-.6,10,4.7,14.3c.5.4,5.8,4.9,10.2,2.8s5.2-5.9,3.8-8a4,4,0,0,0-4.9-.9c-1.8,1.1-1.3,3.9-2.2,4.1s-2.6-3.4-3.3-6.9c-1-5.2.2-9.1,1.1-12.1s1.9-3.6,2-3.6S88.7,215.8,88.8,216.2Z" fill="#fff"/><path d="M146.5,214.2c.5,1.6.1,2.2.6,2.8s3,.7,4.1-.3.9-5.9-1.4-7.8-7.6-1-10.2.6c-5.4,3.4-5.8,10.5-6,13s-.6,10,4.7,14.3c.5.4,5.8,4.9,10.2,2.8s5.2-5.9,3.8-8a4,4,0,0,0-4.9-.9c-1.8,1.1-1.3,3.9-2.2,4.1s-2.6-3.4-3.3-6.9c-1-5.2.2-9.1,1.1-12.1s1.9-3.6,2-3.6S146.4,213.8,146.5,214.2Z" fill="#fff"/><rect x="97.6" y="210.2" width="4.1" height="25.24" rx="2" ry="2" fill="#fff"/><rect x="106.2" y="209.4" width="4.9" height="30.16" rx="2.5" ry="2.5" fill="#fff"/><rect x="98.2" y="221.7" width="12.7" height="4.2" rx="2.1" ry="2.1" fill="#fff"/><ellipse cx="124.2" cy="222.8" rx="7.9" ry="14.7" fill="#fff"/><ellipse cx="161.4" cy="222.1" rx="7.9" ry="14.7" fill="#fff"/><ellipse cx="124.3" cy="222.7" rx="3.3" ry="8.4" fill="#321c16"/><ellipse cx="161.8" cy="222.2" rx="3.3" ry="8.4" fill="#321c16"/><path d="M171.6,211.1h3.4s-.4,21.8,1.3,23.1,9.4-.2,9.4,1.5,1.9,5.8-12.2,2.4C173.6,238.1,169.9,240.8,171.6,211.1Z" fill="#fff"/><rect x="215.4" y="209.4" width="4.7" height="26.19" rx="2.3" ry="2.3" fill="#fff"/><rect x="223.5" y="206.9" width="4.7" height="32.29" rx="2.3" ry="2.3" transform="translate(-15.3 16.7) rotate(-4.1)" fill="#fff"/><rect x="203" y="209.3" width="4.7" height="26.19" rx="2.3" ry="2.3" transform="translate(-24.9 25.9) rotate(-6.8)" fill="#fff"/><rect x="239.4" y="206" width="4.7" height="30.37" rx="2.3" ry="2.3" transform="translate(-12.7 14.7) rotate(-3.4)" fill="#fff"/><rect x="247.9" y="219" width="4.5" height="18.99" rx="2.2" ry="2.2" transform="translate(-85 178.7) rotate(-34)" fill="#fff"/><rect x="196.3" y="209" width="16.3" height="4.6" rx="2.3" ry="2.3" transform="translate(-21.3 22.9) rotate(-6.1)" fill="#fff"/><rect x="222.4" y="206.3" width="13.1" height="4.6" rx="2.3" ry="2.3" transform="translate(-20.9 25.5) rotate(-6.1)" fill="#fff"/><rect x="224.4" y="234.3" width="13.1" height="4.6" rx="2.3" ry="2.3" transform="matrix(0.99, -0.11, 0.11, 0.99, -23.86, 25.91)" fill="#fff"/><rect x="224.6" y="222.7" width="8.8" height="4.6" rx="2.3" ry="2.3" transform="translate(-22.6 25.6) rotate(-6.1)" fill="#fff"/><path d="M164.1,98.6a3.6,3.6,0,0,0-2.5-1.7c-1.3-.1-3,.7-3.2,2a2.2,2.2,0,0,0,1.6,2.4c.9.1,1.6-.6,2-.4s.2.8-.2,1.2-1.4.3-1.7.8,0,1.6.8,1.9,2.9-.6,3.7-1.9S164.3,98.9,164.1,98.6Z" fill="#fff"/><path d="M188.9,101.8c-.8.5-1.6.3-1.7.7s.8,1.6,1.9,1.7,3-1,3.6-2.2-.1-4.3-1.8-5.6a6.4,6.4,0,0,0-4.7-1.5c-3.3.6-5,4.9-4.3,8.1s1.4,3.1,3.2,5.3,3,3.3,2.8,5.2c0,.2-.1,1.4-.8,1.5s-1.7-.8-2.1-1.8.1-1-.3-1.4a2.5,2.5,0,0,0-2.9-.2c-.7.6-.4,1.7,0,3a4.8,4.8,0,0,0,1.5,2.8c1.6,1.3,4.8,1.1,6.7-.2s1.7-5.2,1.6-5.6-1.6-1.9-4.1-5.5-2.3-4.5-2.2-5.2.2-3.1,2.1-3.4a2.8,2.8,0,0,1,2.9,1.5A2.4,2.4,0,0,1,188.9,101.8Z" fill="#fff"/><path d="M151.8,102.6c.3,1.1.1,1.6.4,2.1a1.9,1.9,0,0,0,2.6-.2c1.1-1.2.6-4.3-.9-5.7s-4.8-.8-6.5.5c-3.4,2.5-3.7,7.7-3.8,9.5s-.4,7.3,3,10.4c.3.3,3.7,3.6,6.5,2.1s3.3-4.3,2.4-5.8a2.3,2.3,0,0,0-3.1-.7c-1.2.8-.9,2.9-1.4,3s-1.7-2.5-2.1-5a18.8,18.8,0,0,1,.7-8.8c.7-2.6,1.2-2.6,1.3-2.6S151.7,102.3,151.8,102.6Z" fill="#fff"/><rect x="197.8" y="96.9" width="3.7" height="20.89" rx="1.9" ry="1.9" transform="translate(5.4 -9.5) rotate(2.8)" fill="#fff"/><rect x="193.9" y="96.7" width="13" height="3.67" rx="1.8" ry="1.8" transform="translate(6.3 -11.9) rotate(3.5)" fill="#fff"/><rect x="169.6" y="97.1" width="3.4" height="23.66" rx="1.7" ry="1.7" transform="translate(-7.3 12.5) rotate(-4.1)" fill="#fff"/><rect x="168.8" y="96.6" width="9.6" height="3.37" rx="1.7" ry="1.7" transform="translate(-9.5 19) rotate(-6.1)" fill="#fff"/><rect x="170.3" y="117.1" width="9.6" height="3.37" rx="1.7" ry="1.7" transform="translate(-11.6 19.3) rotate(-6.1)" fill="#fff"/><rect x="170.4" y="108.6" width="6.4" height="3.37" rx="1.7" ry="1.7" transform="translate(-10.7 19.1) rotate(-6.1)" fill="#fff"/><rect x="183.7" y="224.2" width="11.8" height="4.6" rx="2.3" ry="2.3" fill="#fff"/><rect x="187.2" y="208.8" width="6.3" height="4.6" rx="2.3" ry="2.3" fill="#fff"/><rect x="191.2" y="208.8" width="4.4" height="27.62" rx="2.2" ry="2.2" transform="translate(-38.4 40.3) rotate(-10.8)" fill="#fff"/><rect x="184.5" y="208.8" width="4.4" height="24.26" rx="2.2" ry="2.2" transform="translate(64.1 -41.1) rotate(15.1)" fill="#fff"/><path d="M238.7,207s7.8-7.3,16.3.1c0,0,6.6,8.9-5.4,15.4l-9.8.4Z" fill="#fff"/><path d="M243.3,209.7s3-4,7.2-.3-2.1,11.6-6.4,11.7Z" fill="#321c16"/></svg>