<svg id="Layer_1" data-name="Layer 1" xmlns="http://www.w3.org/2000/svg" width="7.7in" height="7.7in" viewBox="0 0 554.4 554.4"><title>coco</title><path d="M160.9,198.7c-1.8-4.9,1.9-12.4,6.1-13.5a2.9,2.9,0,0,1,2.5.2c2.4,2-2.5,11-2.5,11-13.5,28.5-36.4,26.2-36.4,26.2s3.7-29.9,31.3-70.5,52.8-18.7,52.8-18.7c8.9,64.5-34.6,77.1-34.6,77.1,14-36.4-14.9-38.8-14.9-38.8-28,8.9-9.8,39.7-9.8,39.7,27.6,39.7,64-3.7,64-3.7s46.2-78.5-17.3-97.2-94.8,103.7-94.8,103.7c-2.8-3.6-14.7-17.7-35.5-21-4.1-.7-24.5-3.9-40.6,9.3C13,217.3,7.3,247.1,21.2,267.3c9.2,13.4,27.7,23.3,44.8,18.7,14.6-3.9,29.7-19.2,26.2-30.4-.5-1.7-2.7-7.1-13.1-10.7,0,0-9.5,34.1-34.2,27.1s-4.7-55.8,16.9-58.4,44.4,14.8,44.4,14.8-20.8,69.8,2.6,113.2,76.6,33,94.2-3.9,19.7-38.2,19.7-38.2-15.3,61.5,21.3,70.1,59.9-46.1,63.8-65.8c0,0,6.4-1,15.8-6.9,0,0-13.8,67,32.5,68,0,0,30.6,3,50.3-61.1,0,0,5.9,41.9,24.6,41.9s53.2-34,53.7-81.3c0,0,41.4-6.9,52.7-69S506,121,490.7,120s-65,22.2-33,61.6,49.3-11.8,49.3-11.8-3.9-10.3-19.7-6.9c0,0-9.4,22.2-14.3,18.7s-16.3-37,20.2-47.3,29.1,44.8,22.7,64.1-14.8,36-29.1,48.8c0,0-.5-42.9-37.9-37.9,0,0-28.1,28.1,21.2,54.2,0,0-3.4,43.4-31.5,71,0,0-21.7-12.3-12.3-97.1,0,0-3-14.3-20.2-5.4,0,0-21.2,100.5-49.3,122.7,0,0-32-20.2-9.4-87.7,0,0,9.4-21.7,15.8-22.2s5.9,17.7,16.8,12.3,4.4-25.1-17.7-28.1-42.9,43.9-42.9,43.9-3.4,6.9-7.4,10.8c0,0,8.9-43.9-24.1-46.3s-30.6,33.5-29.1,37.9,9.9,23.2,30.1,27.6c0,0-18.7,59.1-37.5,56.7s-20.7-30.6-7.9-109.4c0,0,1.5-7.9-18.7-9.4,0,0-44.3,117.8-75.9,113.3S117.2,270.8,127,239.3c0,0,27.1,10.3,47.3-18.2,3.1-2.9,6.8-7.1,5.7-10.7C178.2,204,163.7,206.1,160.9,198.7Z" fill="#af752a"/><path d="M291.4,289.1c2.2-.7,2.5-6.8,3.2-18.9.5-9,.3-13.5-2.6-17.8-1-1.4-2.4-3.5-4.6-3.7-4-.5-8.1,5.4-9.8,9.8-4.2,11.2,3.7,22.2,5.2,24.1S288.5,290,291.4,289.1Z" fill="#46221d"/><path d="M470,248.9c1.2-.6.7-4.5-.6-12.3s-2.2-10.5-3.4-12.6-3.6-6.2-6-5.7-3.5,6.2-3.4,10c.1,7.5,4.6,12.8,7.2,15.8S468.4,249.6,470,248.9Z" fill="#46221d"/><path d="M165.2,400c1,3,.2,4.3,1.2,5.4s5.7,1.4,7.8-.6,1.7-11.2-2.7-15-14.4-2-19.4,1.2c-10.3,6.5-11.1,20.1-11.4,24.8s-1.1,19,9,27.2c1,.8,11,9.4,19.4,5.4,5.9-2.8,9.9-11.3,7.2-15.3s-6.5-3.5-9.3-1.8-2.6,7.5-4.2,7.8-4.9-6.5-6.3-13.2c-2-9.9.3-17.3,2.1-23s3.6-6.9,3.9-6.9S165,399.3,165.2,400Z" fill="#fff"/><path d="M275.3,396.2c1,3,.2,4.3,1.2,5.4s5.7,1.4,7.8-.6,1.7-11.2-2.7-15-14.4-2-19.4,1.2c-10.3,6.5-11.1,20.1-11.4,24.8s-1.1,19,9,27.2c1,.8,11,9.4,19.4,5.4,5.9-2.8,9.9-11.3,7.2-15.3s-6.5-3.5-9.3-1.8-2.6,7.5-4.2,7.8-4.9-6.5-6.3-13.2c-2-9.9.3-17.3,2.1-23s3.6-6.9,3.9-6.9S275.1,395.4,275.3,396.2Z" fill="#fff"/><rect x="182.1" y="388.7" width="7.8" height="48.18" rx="2" ry="2" fill="#fff"/><rect x="198.4" y="387" width="9.4" height="57.57" rx="2.5" ry="2.5" fill="#fff"/><rect x="183.1" y="410.5" width="24.3" height="8.01" rx="2.1" ry="2.1" fill="#fff"/><ellipse cx="232.7" cy="412.6" rx="15.1" ry="28" fill="#fff"/><ellipse cx="303.8" cy="411.3" rx="15.1" ry="28" fill="#fff"/><ellipse cx="233.1" cy="412.4" rx="6.3" ry="16.1" fill="#46221d"/><ellipse cx="304.5" cy="411.4" rx="6.3" ry="16.1" fill="#46221d"/><path d="M323.4,390.3h6.5s-.8,41.6,2.4,44.1,18-.4,18,2.9,3.7,11-23.3,4.5C327,441.8,320.1,447.1,323.4,390.3Z" fill="#fff"/><rect x="406.9" y="387.1" width="8.9" height="50" rx="2.3" ry="2.3" fill="#fff"/><rect x="422.3" y="382.4" width="8.9" height="61.64" rx="2.3" ry="2.3" transform="translate(-28.4 31.5) rotate(-4.1)" fill="#fff"/><rect x="383.2" y="387" width="8.9" height="50" rx="2.3" ry="2.3" transform="translate(-46.1 48.9) rotate(-6.8)" fill="#fff"/><rect x="452.7" y="380.6" width="8.9" height="57.97" rx="2.3" ry="2.3" transform="translate(-23.5 27.8) rotate(-3.4)" fill="#fff"/><rect x="469" y="405.3" width="8.6" height="36.26" rx="2.2" ry="2.2" transform="translate(-155.8 336.5) rotate(-34)" fill="#fff"/><rect x="370.4" y="386.3" width="31.1" height="8.79" rx="2.3" ry="2.3" transform="translate(-39.4 43.3) rotate(-6.1)" fill="#fff"/><rect x="420.2" y="381.2" width="24.9" height="8.79" rx="2.3" ry="2.3" transform="translate(-38.6 48.2) rotate(-6.1)" fill="#fff"/><rect x="424.1" y="434.6" width="24.9" height="8.79" rx="2.3" ry="2.3" transform="translate(-44.2 48.9) rotate(-6.1)" fill="#fff"/><rect x="424.5" y="412.4" width="16.7" height="8.79" rx="2.3" ry="2.3" transform="translate(-41.9 48.4) rotate(-6.1)" fill="#fff"/><path d="M308.9,175.6c-.9-1.2-2.3-3.1-4.7-3.3s-5.8,1.3-6.2,3.8a4.2,4.2,0,0,0,3.1,4.6c1.7.3,3.1-1.2,3.9-.7s.4,1.5-.3,2.3-2.6.7-3.3,1.6,0,3.1,1.5,3.7,5.6-1.2,7.1-3.6S309.3,176.1,308.9,175.6Z" fill="#fff"/><path d="M356.2,181.6c-1.6.9-3,.5-3.3,1.3s1.4,3,3.6,3.3,5.7-2,6.9-4.2-.2-8.2-3.5-10.7c-.9-.7-4.8-3.6-9.1-2.8-6.2,1.2-9.6,9.4-8.2,15.4.7,3.2,2.7,5.8,6.1,10.2s5.6,6.3,5.3,9.9c0,.3-.3,2.6-1.5,2.9s-3.3-1.5-4-3.5.1-1.9-.5-2.6-4.2-1.5-5.6-.4-.8,3.2,0,5.7,1.2,4.1,2.8,5.3c3.1,2.4,9.2,2.2,12.9-.4s3.2-9.9,3-10.7c-1-3.7-3.1-3.7-7.9-10.4s-4.4-8.5-4.3-9.9.5-5.8,4-6.5a5.4,5.4,0,0,1,5.6,2.8C359.5,178.4,357.9,180.6,356.2,181.6Z" fill="#fff"/><path d="M285.4,183.1c.7,2.2.1,3.1.8,3.9s3.6,1,5-.4,1.1-8.2-1.7-10.9-9.2-1.4-12.4.9c-6.6,4.8-7.1,14.7-7.3,18.1s-.7,13.9,5.7,19.9c.6.6,7,6.9,12.4,3.9,3.8-2.1,6.3-8.3,4.6-11.1a4.4,4.4,0,0,0-5.9-1.3c-2.2,1.6-1.6,5.5-2.7,5.7s-3.2-4.7-4-9.6c-1.3-7.2.2-12.7,1.3-16.8s2.3-5,2.5-5S285.2,182.6,285.4,183.1Z" fill="#fff"/><rect x="373.3" y="172.4" width="7.1" height="39.87" rx="1.9" ry="1.9" transform="translate(9.7 -17.9) rotate(2.8)" fill="#fff"/><rect x="365.9" y="171.9" width="24.8" height="7.01" rx="1.8" ry="1.8" transform="translate(11.3 -22.5) rotate(3.5)" fill="#fff"/><rect x="319.4" y="172.6" width="6.5" height="45.16" rx="1.7" ry="1.7" transform="translate(-13.1 23.5) rotate(-4.1)" fill="#fff"/><rect x="317.9" y="171.8" width="18.3" height="6.44" rx="1.7" ry="1.7" transform="translate(-16.8 35.8) rotate(-6.1)" fill="#fff"/><rect x="320.7" y="210.9" width="18.3" height="6.44" rx="1.7" ry="1.7" transform="translate(-20.9 36.3) rotate(-6.1)" fill="#fff"/><rect x="321" y="194.6" width="12.3" height="6.44" rx="1.7" ry="1.7" transform="matrix(0.99, -0.11, 0.11, 0.99, -19.19, 35.92)" fill="#fff"/><rect x="346.4" y="415.3" width="22.5" height="8.79" rx="2.3" ry="2.3" fill="#fff"/><rect x="353" y="385.9" width="12" height="8.79" rx="2.3" ry="2.3" fill="#fff"/><rect x="360.8" y="385.9" width="8.4" height="52.72" rx="2.2" ry="2.2" transform="translate(-71 75.9) rotate(-10.8)" fill="#fff"/><rect x="347.9" y="385.9" width="8.4" height="46.31" rx="2.2" ry="2.2" transform="translate(118.9 -77.7) rotate(15.1)" fill="#fff"/><path d="M451.3,382.5s14.9-14,31.1.2c0,0,12.7,16.9-10.3,29.5l-18.8.7Z" fill="#fff"/><path d="M460.1,387.6s5.7-7.6,13.7-.5-4.1,22.1-12.2,22.3Z" fill="#46221d"/></svg>