<svg id="Layer_1" data-name="Layer 1" xmlns="http://www.w3.org/2000/svg" width="72in" height="72in" viewBox="0 0 5184 5184"><title>Artboard 1</title><path d="M1026.4,1362.5s73.2-390.4,463.6-378.2l2330,6.1s329.4,24.4,359.9,390.4l6.1,2384.9s-42.7,359.9-408.7,372.1H3088.1l-4.2-1126.9H3492s47.4-24,55.2-70.9,48.6-372.5,34.7-391.6-42.5-39.1-57.3-39.1H3084.4v-343S3072,2005,3245.8,1978.6h273s59.1-13.1,58.5-72.8-.6-322.2-.6-322.2-6-57.3-58.5-57.9-376.5-1.2-376.5-1.2-233,1.8-388.3,170.5-162,376.5-162,376.5v436.8l-315,3.4s-48,7.8-49.2,54.7-2.2,382.1-2.2,382.1,1.1,63.7,40.2,63.7h327.3l-1.1,1129.5H1406s-318.4-45.8-378.7-373.8Z" fill="#50151a"/></svg>