<svg id="Layer_1" data-name="Layer 1" xmlns="http://www.w3.org/2000/svg" width="72in" height="72in" viewBox="0 0 5184 5184"><title>Artboard 1</title><path d="M1037.3,1826s15.5-649.6,726.9-778.5c0,0,1175.4-56.7,1546.6-5.2,0,0,726.9-30.9,830,809.4,0,0,30.9,974.4-5.2,1459,0,0,20.6,721.8-773.3,830,0,0-922.8,41.2-1469.3,10.3,0,0-763,15.5-861-819.7Z" fill="#5b1125"/><path d="M1315.6,1944.6s-36.1-567.1,546.5-618.7c0,0,1129-41.2,1371.3-5.2s531,25.8,629,541.3c0,0,5.2,1319.8,5.2,1335.3s10.3,587.7-510.4,659.9c0,0-835.2,51.6-1459,5.2,0,0-500.1,10.3-577.4-515.5C1320.8,3346.9,1274.4,2429.2,1315.6,1944.6Z" fill="#fff"/><ellipse cx="3430.2" cy="1756.7" rx="196.7" ry="204.4" fill="#50151a"/><ellipse cx="2592" cy="2591.5" rx="814.4" ry="809.4" fill="#50151a"/><ellipse cx="2599.4" cy="2594.7" rx="553.7" ry="554.8" fill="#fff"/></svg>